<mxfile host="65bd71144e">
    <diagram name="PÃ¡gina-1" id="dqLcOb5ojzZijLl2xL6k">
        <mxGraphModel dx="1543" dy="714" grid="1" gridSize="10" guides="1" tooltips="1" connect="1" arrows="1" fold="1" page="1" pageScale="1" pageWidth="827" pageHeight="1169" math="0" shadow="0">
            <root>
                <mxCell id="0"/>
                <mxCell id="1" parent="0"/>
                <mxCell id="axeA_orivt2Zv7nJtLyO-1" value="Administrador" style="shape=umlActor;verticalLabelPosition=bottom;verticalAlign=top;html=1;outlineConnect=0;" parent="1" vertex="1">
                    <mxGeometry x="130" y="210" width="30" height="60" as="geometry"/>
                </mxCell>
                <mxCell id="axeA_orivt2Zv7nJtLyO-3" value="Tela Visualizacao Voos" style="rounded=0;whiteSpace=wrap;html=1;" parent="1" vertex="1">
                    <mxGeometry x="270" y="215" width="120" height="50" as="geometry"/>
                </mxCell>
                <mxCell id="axeA_orivt2Zv7nJtLyO-4" value="Voo" style="rounded=0;whiteSpace=wrap;html=1;" parent="1" vertex="1">
                    <mxGeometry x="760" y="215" width="120" height="50" as="geometry"/>
                </mxCell>
                <mxCell id="axeA_orivt2Zv7nJtLyO-5" value="" style="endArrow=none;dashed=1;html=1;rounded=0;exitX=0.5;exitY=1;exitDx=0;exitDy=0;" parent="1" source="axeA_orivt2Zv7nJtLyO-8" edge="1">
                    <mxGeometry width="50" height="50" relative="1" as="geometry">
                        <mxPoint x="140" y="290" as="sourcePoint"/>
                        <mxPoint x="140" y="912.5" as="targetPoint"/>
                    </mxGeometry>
                </mxCell>
                <mxCell id="axeA_orivt2Zv7nJtLyO-9" value="" style="endArrow=none;dashed=1;html=1;rounded=0;entryX=0.5;entryY=0;entryDx=0;entryDy=0;" parent="1" target="axeA_orivt2Zv7nJtLyO-8" edge="1">
                    <mxGeometry width="50" height="50" relative="1" as="geometry">
                        <mxPoint x="140" y="290" as="sourcePoint"/>
                        <mxPoint x="140" y="650" as="targetPoint"/>
                    </mxGeometry>
                </mxCell>
                <mxCell id="axeA_orivt2Zv7nJtLyO-8" value="" style="rounded=1;whiteSpace=wrap;html=1;" parent="1" vertex="1">
                    <mxGeometry x="135" y="300" width="10" height="860" as="geometry"/>
                </mxCell>
                <mxCell id="axeA_orivt2Zv7nJtLyO-12" value="" style="rounded=1;whiteSpace=wrap;html=1;" parent="1" vertex="1">
                    <mxGeometry x="325" y="428" width="10" height="50" as="geometry"/>
                </mxCell>
                <mxCell id="axeA_orivt2Zv7nJtLyO-13" value="" style="endArrow=classic;html=1;rounded=0;entryX=0;entryY=0;entryDx=0;entryDy=0;" parent="1" target="axeA_orivt2Zv7nJtLyO-12" edge="1">
                    <mxGeometry width="50" height="50" relative="1" as="geometry">
                        <mxPoint x="145" y="428" as="sourcePoint"/>
                        <mxPoint x="320" y="428" as="targetPoint"/>
                    </mxGeometry>
                </mxCell>
                <mxCell id="axeA_orivt2Zv7nJtLyO-14" value="&lt;font&gt;2: Criar &lt;/font&gt;Voo&lt;font&gt;()&lt;/font&gt;" style="text;html=1;align=center;verticalAlign=middle;whiteSpace=wrap;rounded=0;fontSize=10;" parent="1" vertex="1">
                    <mxGeometry x="170" y="410" width="140" height="20" as="geometry"/>
                </mxCell>
                <mxCell id="axeA_orivt2Zv7nJtLyO-15" value="" style="endArrow=none;dashed=1;html=1;rounded=0;exitX=0.5;exitY=1;exitDx=0;exitDy=0;entryX=0.5;entryY=0;entryDx=0;entryDy=0;" parent="1" source="axeA_orivt2Zv7nJtLyO-4" target="axeA_orivt2Zv7nJtLyO-65" edge="1">
                    <mxGeometry width="50" height="50" relative="1" as="geometry">
                        <mxPoint x="929.76" y="265" as="sourcePoint"/>
                        <mxPoint x="929.76" y="515" as="targetPoint"/>
                    </mxGeometry>
                </mxCell>
                <mxCell id="axeA_orivt2Zv7nJtLyO-17" value="Tela Criar Voo" style="rounded=0;whiteSpace=wrap;html=1;" parent="1" vertex="1">
                    <mxGeometry x="430" y="215" width="120" height="50" as="geometry"/>
                </mxCell>
                <mxCell id="axeA_orivt2Zv7nJtLyO-18" value="" style="endArrow=none;dashed=1;html=1;rounded=0;exitX=0.5;exitY=1;exitDx=0;exitDy=0;" parent="1" source="axeA_orivt2Zv7nJtLyO-22" edge="1">
                    <mxGeometry width="50" height="50" relative="1" as="geometry">
                        <mxPoint x="489.76" y="395" as="sourcePoint"/>
                        <mxPoint x="490" y="640" as="targetPoint"/>
                    </mxGeometry>
                </mxCell>
                <mxCell id="axeA_orivt2Zv7nJtLyO-20" value="{Tela Criar&amp;nbsp;Voo}" style="text;html=1;align=center;verticalAlign=middle;whiteSpace=wrap;rounded=0;fontSize=10;" parent="1" vertex="1">
                    <mxGeometry x="165" y="478" width="150" height="20" as="geometry"/>
                </mxCell>
                <mxCell id="axeA_orivt2Zv7nJtLyO-23" value="" style="endArrow=none;html=1;rounded=0;entryX=0;entryY=1;entryDx=0;entryDy=0;dashed=1;endFill=0;startArrow=open;startFill=0;" parent="1" target="axeA_orivt2Zv7nJtLyO-12" edge="1">
                    <mxGeometry width="50" height="50" relative="1" as="geometry">
                        <mxPoint x="146" y="478" as="sourcePoint"/>
                        <mxPoint x="290" y="478" as="targetPoint"/>
                    </mxGeometry>
                </mxCell>
                <mxCell id="axeA_orivt2Zv7nJtLyO-22" value="" style="rounded=1;whiteSpace=wrap;html=1;" parent="1" vertex="1">
                    <mxGeometry x="485" y="550" width="10" height="70" as="geometry"/>
                </mxCell>
                <mxCell id="axeA_orivt2Zv7nJtLyO-27" value="" style="endArrow=classic;html=1;rounded=0;entryX=0;entryY=0;entryDx=0;entryDy=0;exitX=1.058;exitY=0.289;exitDx=0;exitDy=0;exitPerimeter=0;" parent="1" source="axeA_orivt2Zv7nJtLyO-8" target="axeA_orivt2Zv7nJtLyO-22" edge="1">
                    <mxGeometry width="50" height="50" relative="1" as="geometry">
                        <mxPoint x="150" y="550" as="sourcePoint"/>
                        <mxPoint x="485" y="550" as="targetPoint"/>
                    </mxGeometry>
                </mxCell>
                <mxCell id="axeA_orivt2Zv7nJtLyO-30" value="&lt;font&gt;2.1: Inserir e Confirmar Dados do &lt;/font&gt;Voo&lt;font&gt;()&lt;/font&gt;" style="text;html=1;align=center;verticalAlign=middle;whiteSpace=wrap;rounded=0;fontSize=10;" parent="1" vertex="1">
                    <mxGeometry x="155" y="530" width="250" height="20" as="geometry"/>
                </mxCell>
                <mxCell id="axeA_orivt2Zv7nJtLyO-31" value="" style="endArrow=classic;html=1;rounded=0;exitX=1.024;exitY=0.356;exitDx=0;exitDy=0;exitPerimeter=0;entryX=0;entryY=0;entryDx=0;entryDy=0;" parent="1" target="axeA_orivt2Zv7nJtLyO-32" edge="1">
                    <mxGeometry width="50" height="50" relative="1" as="geometry">
                        <mxPoint x="495" y="559" as="sourcePoint"/>
                        <mxPoint x="630" y="558" as="targetPoint"/>
                    </mxGeometry>
                </mxCell>
                <mxCell id="axeA_orivt2Zv7nJtLyO-32" value="" style="rounded=1;whiteSpace=wrap;html=1;" parent="1" vertex="1">
                    <mxGeometry x="815" y="558" width="10" height="50" as="geometry"/>
                </mxCell>
                <mxCell id="axeA_orivt2Zv7nJtLyO-34" value="" style="endArrow=none;html=1;rounded=0;entryX=0;entryY=1;entryDx=0;entryDy=0;dashed=1;endFill=0;startArrow=open;startFill=0;" parent="1" target="axeA_orivt2Zv7nJtLyO-32" edge="1">
                    <mxGeometry width="50" height="50" relative="1" as="geometry">
                        <mxPoint x="496" y="608" as="sourcePoint"/>
                        <mxPoint x="645" y="599" as="targetPoint"/>
                    </mxGeometry>
                </mxCell>
                <mxCell id="axeA_orivt2Zv7nJtLyO-35" value="2.2: createVoo()" style="text;html=1;align=center;verticalAlign=middle;whiteSpace=wrap;rounded=0;fontSize=10;" parent="1" vertex="1">
                    <mxGeometry x="475" y="541" width="200" height="20" as="geometry"/>
                </mxCell>
                <mxCell id="axeA_orivt2Zv7nJtLyO-36" value="" style="endArrow=none;html=1;rounded=0;entryX=0;entryY=1;entryDx=0;entryDy=0;dashed=1;endFill=0;startArrow=open;startFill=0;" parent="1" edge="1">
                    <mxGeometry width="50" height="50" relative="1" as="geometry">
                        <mxPoint x="145" y="620" as="sourcePoint"/>
                        <mxPoint x="484" y="620" as="targetPoint"/>
                    </mxGeometry>
                </mxCell>
                <mxCell id="axeA_orivt2Zv7nJtLyO-37" value="{Tela Visualizacao&amp;nbsp;Voos}" style="text;html=1;align=center;verticalAlign=middle;whiteSpace=wrap;rounded=0;fontSize=10;" parent="1" vertex="1">
                    <mxGeometry x="155" y="620" width="175" height="20" as="geometry"/>
                </mxCell>
                <mxCell id="axeA_orivt2Zv7nJtLyO-40" value="Tela Edicao Voo" style="rounded=0;whiteSpace=wrap;html=1;" parent="1" vertex="1">
                    <mxGeometry x="590" y="215" width="120" height="50" as="geometry"/>
                </mxCell>
                <mxCell id="axeA_orivt2Zv7nJtLyO-45" value="" style="endArrow=none;dashed=1;html=1;rounded=0;exitX=0.5;exitY=1;exitDx=0;exitDy=0;entryX=0.5;entryY=0;entryDx=0;entryDy=0;" parent="1" source="axeA_orivt2Zv7nJtLyO-81" target="0-eEK_Ey9VHcflzUC_9f-5" edge="1">
                    <mxGeometry width="50" height="50" relative="1" as="geometry">
                        <mxPoint x="650" y="140" as="sourcePoint"/>
                        <mxPoint x="650" y="915" as="targetPoint"/>
                    </mxGeometry>
                </mxCell>
                <mxCell id="axeA_orivt2Zv7nJtLyO-54" value="" style="rounded=1;whiteSpace=wrap;html=1;" parent="1" vertex="1">
                    <mxGeometry x="325" y="318" width="10" height="52" as="geometry"/>
                </mxCell>
                <mxCell id="axeA_orivt2Zv7nJtLyO-60" value="" style="endArrow=classic;html=1;rounded=0;exitX=1.085;exitY=0.449;exitDx=0;exitDy=0;exitPerimeter=0;entryX=0;entryY=0;entryDx=0;entryDy=0;" parent="1" target="axeA_orivt2Zv7nJtLyO-54" edge="1">
                    <mxGeometry width="50" height="50" relative="1" as="geometry">
                        <mxPoint x="145.8499999999999" y="318.59000000000015" as="sourcePoint"/>
                        <mxPoint x="690" y="309" as="targetPoint"/>
                    </mxGeometry>
                </mxCell>
                <mxCell id="axeA_orivt2Zv7nJtLyO-61" value="" style="endArrow=none;html=1;rounded=0;entryX=0;entryY=1;entryDx=0;entryDy=0;dashed=1;endFill=0;startArrow=open;startFill=0;" parent="1" target="axeA_orivt2Zv7nJtLyO-54" edge="1">
                    <mxGeometry width="50" height="50" relative="1" as="geometry">
                        <mxPoint x="146" y="370" as="sourcePoint"/>
                        <mxPoint x="635" y="368" as="targetPoint"/>
                    </mxGeometry>
                </mxCell>
                <mxCell id="axeA_orivt2Zv7nJtLyO-63" value="&lt;font&gt;1: Inicializar Tela()&lt;/font&gt;" style="text;html=1;align=center;verticalAlign=middle;whiteSpace=wrap;rounded=0;fontSize=10;" parent="1" vertex="1">
                    <mxGeometry x="156" y="300" width="160" height="20" as="geometry"/>
                </mxCell>
                <mxCell id="axeA_orivt2Zv7nJtLyO-65" value="" style="rounded=1;whiteSpace=wrap;html=1;" parent="1" vertex="1">
                    <mxGeometry x="815" y="318" width="10" height="52" as="geometry"/>
                </mxCell>
                <mxCell id="axeA_orivt2Zv7nJtLyO-66" value="" style="endArrow=classic;html=1;rounded=0;exitX=1;exitY=0;exitDx=0;exitDy=0;entryX=0;entryY=0;entryDx=0;entryDy=0;" parent="1" source="axeA_orivt2Zv7nJtLyO-54" target="axeA_orivt2Zv7nJtLyO-65" edge="1">
                    <mxGeometry width="50" height="50" relative="1" as="geometry">
                        <mxPoint x="624" y="318.65999999999997" as="sourcePoint"/>
                        <mxPoint x="820" y="320" as="targetPoint"/>
                    </mxGeometry>
                </mxCell>
                <mxCell id="axeA_orivt2Zv7nJtLyO-67" value="" style="endArrow=none;html=1;rounded=0;entryX=0;entryY=1;entryDx=0;entryDy=0;dashed=1;endFill=0;startArrow=open;startFill=0;exitX=1;exitY=1;exitDx=0;exitDy=0;" parent="1" source="axeA_orivt2Zv7nJtLyO-54" target="axeA_orivt2Zv7nJtLyO-65" edge="1">
                    <mxGeometry width="50" height="50" relative="1" as="geometry">
                        <mxPoint x="623" y="368" as="sourcePoint"/>
                        <mxPoint x="925" y="368" as="targetPoint"/>
                    </mxGeometry>
                </mxCell>
                <mxCell id="axeA_orivt2Zv7nJtLyO-68" value="&lt;font&gt;3.2: get&lt;/font&gt;Voo&lt;font&gt;()&lt;/font&gt;" style="text;html=1;align=center;verticalAlign=middle;whiteSpace=wrap;rounded=0;fontSize=10;" parent="1" vertex="1">
                    <mxGeometry x="658" y="791" width="160" height="20" as="geometry"/>
                </mxCell>
                <mxCell id="axeA_orivt2Zv7nJtLyO-70" value="{Voos}" style="text;html=1;align=center;verticalAlign=middle;whiteSpace=wrap;rounded=0;fontSize=10;" parent="1" vertex="1">
                    <mxGeometry x="510" y="368" width="130" height="20" as="geometry"/>
                </mxCell>
                <mxCell id="axeA_orivt2Zv7nJtLyO-73" value="{Voos}" style="text;html=1;align=center;verticalAlign=middle;whiteSpace=wrap;rounded=0;fontSize=10;" parent="1" vertex="1">
                    <mxGeometry x="145" y="369" width="180" height="20" as="geometry"/>
                </mxCell>
                <mxCell id="axeA_orivt2Zv7nJtLyO-76" value="" style="rounded=1;whiteSpace=wrap;html=1;" parent="1" vertex="1">
                    <mxGeometry x="325" y="688" width="10" height="52" as="geometry"/>
                </mxCell>
                <mxCell id="axeA_orivt2Zv7nJtLyO-77" value="" style="endArrow=classic;html=1;rounded=0;entryX=0;entryY=0;entryDx=0;entryDy=0;" parent="1" target="axeA_orivt2Zv7nJtLyO-76" edge="1">
                    <mxGeometry width="50" height="50" relative="1" as="geometry">
                        <mxPoint x="145" y="688" as="sourcePoint"/>
                        <mxPoint x="691" y="677" as="targetPoint"/>
                    </mxGeometry>
                </mxCell>
                <mxCell id="axeA_orivt2Zv7nJtLyO-78" value="" style="endArrow=none;html=1;rounded=0;entryX=0;entryY=1;entryDx=0;entryDy=0;dashed=1;endFill=0;startArrow=open;startFill=0;exitX=1.005;exitY=0.617;exitDx=0;exitDy=0;exitPerimeter=0;" parent="1" target="axeA_orivt2Zv7nJtLyO-76" edge="1">
                    <mxGeometry width="50" height="50" relative="1" as="geometry">
                        <mxPoint x="145.04999999999995" y="739.47" as="sourcePoint"/>
                        <mxPoint x="636" y="736" as="targetPoint"/>
                    </mxGeometry>
                </mxCell>
                <mxCell id="axeA_orivt2Zv7nJtLyO-79" value="&lt;font&gt;3: Editar &lt;/font&gt;Voo&lt;font&gt;()&lt;/font&gt;" style="text;html=1;align=center;verticalAlign=middle;whiteSpace=wrap;rounded=0;fontSize=10;" parent="1" vertex="1">
                    <mxGeometry x="155" y="670" width="160" height="20" as="geometry"/>
                </mxCell>
                <mxCell id="axeA_orivt2Zv7nJtLyO-80" value="{Tela Edicao&amp;nbsp;Voo}" style="text;html=1;align=center;verticalAlign=middle;whiteSpace=wrap;rounded=0;fontSize=10;" parent="1" vertex="1">
                    <mxGeometry x="148" y="738" width="180" height="20" as="geometry"/>
                </mxCell>
                <mxCell id="axeA_orivt2Zv7nJtLyO-81" value="" style="rounded=1;whiteSpace=wrap;html=1;" parent="1" vertex="1">
                    <mxGeometry x="645" y="805" width="10" height="52" as="geometry"/>
                </mxCell>
                <mxCell id="axeA_orivt2Zv7nJtLyO-83" value="" style="endArrow=classic;html=1;rounded=0;entryX=0;entryY=0;entryDx=0;entryDy=0;exitX=1.015;exitY=0.586;exitDx=0;exitDy=0;exitPerimeter=0;" parent="1" source="axeA_orivt2Zv7nJtLyO-8" target="axeA_orivt2Zv7nJtLyO-81" edge="1">
                    <mxGeometry width="50" height="50" relative="1" as="geometry">
                        <mxPoint x="150" y="805" as="sourcePoint"/>
                        <mxPoint x="785" y="809" as="targetPoint"/>
                    </mxGeometry>
                </mxCell>
                <mxCell id="axeA_orivt2Zv7nJtLyO-84" value="" style="endArrow=none;html=1;rounded=0;entryX=0;entryY=1;entryDx=0;entryDy=0;dashed=1;endFill=0;startArrow=open;startFill=0;" parent="1" target="axeA_orivt2Zv7nJtLyO-81" edge="1">
                    <mxGeometry width="50" height="50" relative="1" as="geometry">
                        <mxPoint x="145" y="857" as="sourcePoint"/>
                        <mxPoint x="785" y="861" as="targetPoint"/>
                    </mxGeometry>
                </mxCell>
                <mxCell id="axeA_orivt2Zv7nJtLyO-85" value="&lt;font&gt;3.1: Inicializar Tela()&lt;/font&gt;" style="text;html=1;align=center;verticalAlign=middle;whiteSpace=wrap;rounded=0;fontSize=10;" parent="1" vertex="1">
                    <mxGeometry x="370" y="785" width="160" height="20" as="geometry"/>
                </mxCell>
                <mxCell id="axeA_orivt2Zv7nJtLyO-87" value="" style="endArrow=none;dashed=1;html=1;rounded=0;entryX=0.5;entryY=0;entryDx=0;entryDy=0;" parent="1" source="axeA_orivt2Zv7nJtLyO-88" target="0-eEK_Ey9VHcflzUC_9f-7" edge="1">
                    <mxGeometry width="50" height="50" relative="1" as="geometry">
                        <mxPoint x="795" y="635" as="sourcePoint"/>
                        <mxPoint x="795" y="925" as="targetPoint"/>
                    </mxGeometry>
                </mxCell>
                <mxCell id="axeA_orivt2Zv7nJtLyO-88" value="" style="rounded=1;whiteSpace=wrap;html=1;" parent="1" vertex="1">
                    <mxGeometry x="815" y="810" width="10" height="42" as="geometry"/>
                </mxCell>
                <mxCell id="axeA_orivt2Zv7nJtLyO-90" value="" style="endArrow=classic;html=1;rounded=0;exitX=1;exitY=0;exitDx=0;exitDy=0;entryX=0;entryY=0;entryDx=0;entryDy=0;" parent="1" target="axeA_orivt2Zv7nJtLyO-88" edge="1">
                    <mxGeometry width="50" height="50" relative="1" as="geometry">
                        <mxPoint x="655" y="810" as="sourcePoint"/>
                        <mxPoint x="935" y="810.66" as="targetPoint"/>
                    </mxGeometry>
                </mxCell>
                <mxCell id="axeA_orivt2Zv7nJtLyO-91" value="" style="endArrow=none;html=1;rounded=0;entryX=0;entryY=1;entryDx=0;entryDy=0;dashed=1;endFill=0;startArrow=open;startFill=0;exitX=1.054;exitY=0.887;exitDx=0;exitDy=0;exitPerimeter=0;" parent="1" source="axeA_orivt2Zv7nJtLyO-81" target="axeA_orivt2Zv7nJtLyO-88" edge="1">
                    <mxGeometry width="50" height="50" relative="1" as="geometry">
                        <mxPoint x="660" y="852" as="sourcePoint"/>
                        <mxPoint x="786" y="852" as="targetPoint"/>
                    </mxGeometry>
                </mxCell>
                <mxCell id="axeA_orivt2Zv7nJtLyO-92" value="&lt;font&gt;1.1: get&lt;/font&gt;Voo&lt;font&gt;s()&lt;/font&gt;" style="text;html=1;align=center;verticalAlign=middle;whiteSpace=wrap;rounded=0;fontSize=10;" parent="1" vertex="1">
                    <mxGeometry x="497" y="300" width="160" height="20" as="geometry"/>
                </mxCell>
                <mxCell id="axeA_orivt2Zv7nJtLyO-93" value="{Voo}" style="text;html=1;align=center;verticalAlign=middle;whiteSpace=wrap;rounded=0;fontSize=10;" parent="1" vertex="1">
                    <mxGeometry x="673" y="850" width="130" height="20" as="geometry"/>
                </mxCell>
                <mxCell id="axeA_orivt2Zv7nJtLyO-94" value="{Voo}" style="text;html=1;align=center;verticalAlign=middle;whiteSpace=wrap;rounded=0;fontSize=10;" parent="1" vertex="1">
                    <mxGeometry x="385" y="857" width="130" height="20" as="geometry"/>
                </mxCell>
                <mxCell id="0-eEK_Ey9VHcflzUC_9f-3" value="&lt;font&gt;4: Inserir e Confirmar Dados Novos do &lt;/font&gt;Voo&lt;font&gt;()&lt;/font&gt;" style="text;html=1;align=center;verticalAlign=middle;whiteSpace=wrap;rounded=0;fontSize=10;" parent="1" vertex="1">
                    <mxGeometry x="330" y="903" width="270" height="20" as="geometry"/>
                </mxCell>
                <mxCell id="0-eEK_Ey9VHcflzUC_9f-4" value="" style="endArrow=classic;html=1;rounded=0;entryX=0;entryY=0;entryDx=0;entryDy=0;" parent="1" target="0-eEK_Ey9VHcflzUC_9f-5" edge="1">
                    <mxGeometry width="50" height="50" relative="1" as="geometry">
                        <mxPoint x="146" y="920" as="sourcePoint"/>
                        <mxPoint x="785" y="929" as="targetPoint"/>
                        <Array as="points">
                            <mxPoint x="370" y="920"/>
                        </Array>
                    </mxGeometry>
                </mxCell>
                <mxCell id="0-eEK_Ey9VHcflzUC_9f-5" value="" style="rounded=1;whiteSpace=wrap;html=1;" parent="1" vertex="1">
                    <mxGeometry x="645" y="920" width="10" height="47" as="geometry"/>
                </mxCell>
                <mxCell id="0-eEK_Ey9VHcflzUC_9f-6" value="" style="endArrow=none;html=1;rounded=0;entryX=0;entryY=1;entryDx=0;entryDy=0;dashed=1;endFill=0;startArrow=open;startFill=0;" parent="1" target="0-eEK_Ey9VHcflzUC_9f-5" edge="1">
                    <mxGeometry width="50" height="50" relative="1" as="geometry">
                        <mxPoint x="146" y="967" as="sourcePoint"/>
                        <mxPoint x="784" y="971" as="targetPoint"/>
                    </mxGeometry>
                </mxCell>
                <mxCell id="0-eEK_Ey9VHcflzUC_9f-7" value="" style="rounded=1;whiteSpace=wrap;html=1;" parent="1" vertex="1">
                    <mxGeometry x="815" y="920" width="10" height="53" as="geometry"/>
                </mxCell>
                <mxCell id="0-eEK_Ey9VHcflzUC_9f-9" value="&lt;font&gt;4.1: set&lt;/font&gt;Voo&lt;font&gt;()&lt;/font&gt;" style="text;html=1;align=center;verticalAlign=middle;whiteSpace=wrap;rounded=0;fontSize=10;" parent="1" vertex="1">
                    <mxGeometry x="658" y="902" width="160" height="20" as="geometry"/>
                </mxCell>
                <mxCell id="0-eEK_Ey9VHcflzUC_9f-10" value="" style="endArrow=classic;html=1;rounded=0;exitX=1;exitY=0;exitDx=0;exitDy=0;entryX=0;entryY=0;entryDx=0;entryDy=0;" parent="1" target="0-eEK_Ey9VHcflzUC_9f-7" edge="1">
                    <mxGeometry width="50" height="50" relative="1" as="geometry">
                        <mxPoint x="655" y="921.5" as="sourcePoint"/>
                        <mxPoint x="785" y="921.5" as="targetPoint"/>
                    </mxGeometry>
                </mxCell>
                <mxCell id="0-eEK_Ey9VHcflzUC_9f-12" value="" style="endArrow=none;html=1;rounded=0;entryX=0;entryY=0.75;entryDx=0;entryDy=0;dashed=1;endFill=0;startArrow=open;startFill=0;exitX=1.054;exitY=0.887;exitDx=0;exitDy=0;exitPerimeter=0;" parent="1" target="0-eEK_Ey9VHcflzUC_9f-7" edge="1">
                    <mxGeometry width="50" height="50" relative="1" as="geometry">
                        <mxPoint x="655" y="960.5" as="sourcePoint"/>
                        <mxPoint x="784" y="961.5" as="targetPoint"/>
                    </mxGeometry>
                </mxCell>
                <mxCell id="0-eEK_Ey9VHcflzUC_9f-13" value="{Tela Visualizacao&amp;nbsp;Voo}" style="text;html=1;align=center;verticalAlign=middle;whiteSpace=wrap;rounded=0;fontSize=10;" parent="1" vertex="1">
                    <mxGeometry x="352.5" y="964" width="195" height="20" as="geometry"/>
                </mxCell>
                <mxCell id="0-eEK_Ey9VHcflzUC_9f-14" value="&lt;font&gt;5: Remover &lt;/font&gt;Voo&lt;font&gt;()&lt;/font&gt;" style="text;html=1;align=center;verticalAlign=middle;whiteSpace=wrap;rounded=0;fontSize=10;" parent="1" vertex="1">
                    <mxGeometry x="328" y="997.5" width="250" height="20" as="geometry"/>
                </mxCell>
                <mxCell id="0-eEK_Ey9VHcflzUC_9f-15" value="" style="endArrow=classic;html=1;rounded=0;exitX=0.964;exitY=0.833;exitDx=0;exitDy=0;exitPerimeter=0;entryX=0;entryY=0;entryDx=0;entryDy=0;" parent="1" source="axeA_orivt2Zv7nJtLyO-8" target="0-eEK_Ey9VHcflzUC_9f-16" edge="1">
                    <mxGeometry width="50" height="50" relative="1" as="geometry">
                        <mxPoint x="146" y="1027" as="sourcePoint"/>
                        <mxPoint x="640" y="1013" as="targetPoint"/>
                    </mxGeometry>
                </mxCell>
                <mxCell id="0-eEK_Ey9VHcflzUC_9f-16" value="" style="rounded=1;whiteSpace=wrap;html=1;" parent="1" vertex="1">
                    <mxGeometry x="645" y="1013" width="10" height="52" as="geometry"/>
                </mxCell>
                <mxCell id="0-eEK_Ey9VHcflzUC_9f-17" value="" style="endArrow=none;html=1;rounded=0;entryX=0;entryY=1;entryDx=0;entryDy=0;dashed=1;endFill=0;startArrow=open;startFill=0;" parent="1" target="0-eEK_Ey9VHcflzUC_9f-16" edge="1">
                    <mxGeometry width="50" height="50" relative="1" as="geometry">
                        <mxPoint x="145" y="1067" as="sourcePoint"/>
                        <mxPoint x="784" y="1069" as="targetPoint"/>
                    </mxGeometry>
                </mxCell>
                <mxCell id="0-eEK_Ey9VHcflzUC_9f-18" value="{Tela Visualizacao Voo}" style="text;html=1;align=center;verticalAlign=middle;whiteSpace=wrap;rounded=0;fontSize=10;" parent="1" vertex="1">
                    <mxGeometry x="352.5" y="1064" width="195" height="20" as="geometry"/>
                </mxCell>
                <mxCell id="0-eEK_Ey9VHcflzUC_9f-19" value="" style="endArrow=none;dashed=1;html=1;rounded=0;exitX=0.5;exitY=1;exitDx=0;exitDy=0;entryX=0.5;entryY=0;entryDx=0;entryDy=0;" parent="1" source="0-eEK_Ey9VHcflzUC_9f-7" target="0-eEK_Ey9VHcflzUC_9f-20" edge="1">
                    <mxGeometry width="50" height="50" relative="1" as="geometry">
                        <mxPoint x="794.69" y="971" as="sourcePoint"/>
                        <mxPoint x="795" y="1019" as="targetPoint"/>
                    </mxGeometry>
                </mxCell>
                <mxCell id="0-eEK_Ey9VHcflzUC_9f-20" value="" style="rounded=1;whiteSpace=wrap;html=1;" parent="1" vertex="1">
                    <mxGeometry x="815" y="1017.5" width="10" height="42" as="geometry"/>
                </mxCell>
                <mxCell id="0-eEK_Ey9VHcflzUC_9f-21" value="&lt;font&gt;5.1: delete&lt;/font&gt;Voo&lt;font&gt;()&lt;/font&gt;" style="text;html=1;align=center;verticalAlign=middle;whiteSpace=wrap;rounded=0;fontSize=10;" parent="1" vertex="1">
                    <mxGeometry x="655" y="999.5" width="160" height="20" as="geometry"/>
                </mxCell>
                <mxCell id="0-eEK_Ey9VHcflzUC_9f-22" value="" style="endArrow=classic;html=1;rounded=0;exitX=1;exitY=0;exitDx=0;exitDy=0;entryX=0;entryY=0;entryDx=0;entryDy=0;" parent="1" target="0-eEK_Ey9VHcflzUC_9f-20" edge="1">
                    <mxGeometry width="50" height="50" relative="1" as="geometry">
                        <mxPoint x="655" y="1019" as="sourcePoint"/>
                        <mxPoint x="785" y="1019" as="targetPoint"/>
                    </mxGeometry>
                </mxCell>
                <mxCell id="0-eEK_Ey9VHcflzUC_9f-23" value="" style="endArrow=none;html=1;rounded=0;entryX=0;entryY=1;entryDx=0;entryDy=0;dashed=1;endFill=0;startArrow=open;startFill=0;exitX=1.054;exitY=0.887;exitDx=0;exitDy=0;exitPerimeter=0;" parent="1" target="0-eEK_Ey9VHcflzUC_9f-20" edge="1">
                    <mxGeometry width="50" height="50" relative="1" as="geometry">
                        <mxPoint x="655" y="1058" as="sourcePoint"/>
                        <mxPoint x="784" y="1059" as="targetPoint"/>
                    </mxGeometry>
                </mxCell>
                <mxCell id="0-eEK_Ey9VHcflzUC_9f-25" value="" style="endArrow=none;dashed=1;html=1;rounded=0;exitX=0.5;exitY=1;exitDx=0;exitDy=0;entryX=0.5;entryY=0;entryDx=0;entryDy=0;" parent="1" target="-u--zJyqtq7YNAQtrUt4-5" edge="1">
                    <mxGeometry width="50" height="50" relative="1" as="geometry">
                        <mxPoint x="819.53" y="1059.5" as="sourcePoint"/>
                        <mxPoint x="819.53" y="1079.5" as="targetPoint"/>
                    </mxGeometry>
                </mxCell>
                <mxCell id="0-eEK_Ey9VHcflzUC_9f-27" value="" style="endArrow=none;dashed=1;html=1;rounded=0;exitX=0.5;exitY=1;exitDx=0;exitDy=0;" parent="1" edge="1">
                    <mxGeometry width="50" height="50" relative="1" as="geometry">
                        <mxPoint x="139.89000000000001" y="1160" as="sourcePoint"/>
                        <mxPoint x="139.89000000000001" y="1180" as="targetPoint"/>
                    </mxGeometry>
                </mxCell>
                <mxCell id="0-eEK_Ey9VHcflzUC_9f-28" value="{Voo removido}" style="text;html=1;align=center;verticalAlign=middle;whiteSpace=wrap;rounded=0;fontSize=10;" parent="1" vertex="1">
                    <mxGeometry x="673" y="1055.5" width="130" height="20" as="geometry"/>
                </mxCell>
                <mxCell id="0-eEK_Ey9VHcflzUC_9f-29" value="{Voo editado}" style="text;html=1;align=center;verticalAlign=middle;whiteSpace=wrap;rounded=0;fontSize=10;" parent="1" vertex="1">
                    <mxGeometry x="670" y="959" width="130" height="20" as="geometry"/>
                </mxCell>
                <mxCell id="UyoI0o9oHa3tuSuAJXwl-8" value="" style="endArrow=none;dashed=1;html=1;rounded=0;exitX=0.5;exitY=1;exitDx=0;exitDy=0;entryX=0.5;entryY=0;entryDx=0;entryDy=0;" parent="1" source="axeA_orivt2Zv7nJtLyO-3" target="axeA_orivt2Zv7nJtLyO-54" edge="1">
                    <mxGeometry width="50" height="50" relative="1" as="geometry">
                        <mxPoint x="328" y="265" as="sourcePoint"/>
                        <mxPoint x="328" y="318" as="targetPoint"/>
                    </mxGeometry>
                </mxCell>
                <mxCell id="UyoI0o9oHa3tuSuAJXwl-10" value="" style="endArrow=none;dashed=1;html=1;rounded=0;exitX=0.5;exitY=1;exitDx=0;exitDy=0;entryX=0.5;entryY=0;entryDx=0;entryDy=0;" parent="1" target="axeA_orivt2Zv7nJtLyO-22" edge="1">
                    <mxGeometry width="50" height="50" relative="1" as="geometry">
                        <mxPoint x="489.71000000000004" y="265" as="sourcePoint"/>
                        <mxPoint x="489.71000000000004" y="318" as="targetPoint"/>
                    </mxGeometry>
                </mxCell>
                <mxCell id="UyoI0o9oHa3tuSuAJXwl-11" value="" style="endArrow=none;dashed=1;html=1;rounded=0;" parent="1" edge="1">
                    <mxGeometry width="50" height="50" relative="1" as="geometry">
                        <mxPoint x="820" y="370" as="sourcePoint"/>
                        <mxPoint x="820" y="558" as="targetPoint"/>
                    </mxGeometry>
                </mxCell>
                <mxCell id="UyoI0o9oHa3tuSuAJXwl-12" value="" style="endArrow=none;dashed=1;html=1;rounded=0;exitX=0.5;exitY=1;exitDx=0;exitDy=0;entryX=0.5;entryY=0;entryDx=0;entryDy=0;" parent="1" target="axeA_orivt2Zv7nJtLyO-12" edge="1">
                    <mxGeometry width="50" height="50" relative="1" as="geometry">
                        <mxPoint x="330" y="368" as="sourcePoint"/>
                        <mxPoint x="330" y="421" as="targetPoint"/>
                    </mxGeometry>
                </mxCell>
                <mxCell id="UyoI0o9oHa3tuSuAJXwl-14" value="" style="endArrow=none;dashed=1;html=1;rounded=0;exitX=0.5;exitY=1;exitDx=0;exitDy=0;entryX=0.5;entryY=0;entryDx=0;entryDy=0;" parent="1" target="axeA_orivt2Zv7nJtLyO-76" edge="1">
                    <mxGeometry width="50" height="50" relative="1" as="geometry">
                        <mxPoint x="329.6" y="478" as="sourcePoint"/>
                        <mxPoint x="329.6" y="538" as="targetPoint"/>
                    </mxGeometry>
                </mxCell>
                <mxCell id="UyoI0o9oHa3tuSuAJXwl-15" value="" style="endArrow=none;dashed=1;html=1;rounded=0;exitX=0.5;exitY=1;exitDx=0;exitDy=0;entryX=0.5;entryY=0;entryDx=0;entryDy=0;" parent="1" source="axeA_orivt2Zv7nJtLyO-40" edge="1">
                    <mxGeometry width="50" height="50" relative="1" as="geometry">
                        <mxPoint x="649.62" y="742" as="sourcePoint"/>
                        <mxPoint x="649.62" y="805" as="targetPoint"/>
                    </mxGeometry>
                </mxCell>
                <mxCell id="UyoI0o9oHa3tuSuAJXwl-18" value="{Voo criado}" style="text;html=1;align=center;verticalAlign=middle;whiteSpace=wrap;rounded=0;fontSize=10;" parent="1" vertex="1">
                    <mxGeometry x="497.5" y="607" width="155" height="20" as="geometry"/>
                </mxCell>
                <mxCell id="UyoI0o9oHa3tuSuAJXwl-19" value="" style="endArrow=none;dashed=1;html=1;rounded=0;exitX=0.5;exitY=1;exitDx=0;exitDy=0;entryX=0.5;entryY=0;entryDx=0;entryDy=0;" parent="1" target="0-eEK_Ey9VHcflzUC_9f-16" edge="1">
                    <mxGeometry width="50" height="50" relative="1" as="geometry">
                        <mxPoint x="649.57" y="967" as="sourcePoint"/>
                        <mxPoint x="650" y="1010" as="targetPoint"/>
                    </mxGeometry>
                </mxCell>
                <mxCell id="UyoI0o9oHa3tuSuAJXwl-21" value="" style="endArrow=none;dashed=1;html=1;rounded=0;exitX=0.5;exitY=1;exitDx=0;exitDy=0;" parent="1" edge="1">
                    <mxGeometry width="50" height="50" relative="1" as="geometry">
                        <mxPoint x="649.79" y="1065" as="sourcePoint"/>
                        <mxPoint x="649.79" y="1085" as="targetPoint"/>
                    </mxGeometry>
                </mxCell>
                <mxCell id="UyoI0o9oHa3tuSuAJXwl-22" value="" style="endArrow=none;dashed=1;html=1;rounded=0;entryX=0.5;entryY=0;entryDx=0;entryDy=0;" parent="1" target="axeA_orivt2Zv7nJtLyO-88" edge="1">
                    <mxGeometry width="50" height="50" relative="1" as="geometry">
                        <mxPoint x="819.7099999999999" y="608" as="sourcePoint"/>
                        <mxPoint x="819.7099999999999" y="796" as="targetPoint"/>
                    </mxGeometry>
                </mxCell>
                <mxCell id="UyoI0o9oHa3tuSuAJXwl-23" value="" style="endArrow=none;dashed=1;html=1;rounded=0;exitX=0.5;exitY=1;exitDx=0;exitDy=0;entryX=0.5;entryY=0;entryDx=0;entryDy=0;" parent="1" target="-u--zJyqtq7YNAQtrUt4-1" edge="1">
                    <mxGeometry width="50" height="50" relative="1" as="geometry">
                        <mxPoint x="329.99999999999994" y="740" as="sourcePoint"/>
                        <mxPoint x="329.99999999999994" y="760" as="targetPoint"/>
                    </mxGeometry>
                </mxCell>
                <mxCell id="-u--zJyqtq7YNAQtrUt4-1" value="" style="rounded=1;whiteSpace=wrap;html=1;" parent="1" vertex="1">
                    <mxGeometry x="325" y="1097" width="10" height="52" as="geometry"/>
                </mxCell>
                <mxCell id="-u--zJyqtq7YNAQtrUt4-2" value="" style="endArrow=classic;html=1;rounded=0;exitX=1.085;exitY=0.449;exitDx=0;exitDy=0;exitPerimeter=0;entryX=0;entryY=0;entryDx=0;entryDy=0;" parent="1" target="-u--zJyqtq7YNAQtrUt4-1" edge="1">
                    <mxGeometry width="50" height="50" relative="1" as="geometry">
                        <mxPoint x="145.8499999999999" y="1097.5900000000001" as="sourcePoint"/>
                        <mxPoint x="690" y="1088" as="targetPoint"/>
                    </mxGeometry>
                </mxCell>
                <mxCell id="-u--zJyqtq7YNAQtrUt4-3" value="" style="endArrow=none;html=1;rounded=0;entryX=0;entryY=1;entryDx=0;entryDy=0;dashed=1;endFill=0;startArrow=open;startFill=0;" parent="1" target="-u--zJyqtq7YNAQtrUt4-1" edge="1">
                    <mxGeometry width="50" height="50" relative="1" as="geometry">
                        <mxPoint x="146" y="1149" as="sourcePoint"/>
                        <mxPoint x="635" y="1147" as="targetPoint"/>
                    </mxGeometry>
                </mxCell>
                <mxCell id="-u--zJyqtq7YNAQtrUt4-4" value="&lt;font style=&quot;border-color: var(--border-color);&quot;&gt;6:&amp;nbsp;&lt;/font&gt;&lt;font style=&quot;border-color: var(--border-color);&quot;&gt;&lt;font style=&quot;border-color: var(--border-color);&quot;&gt;Selecionar Filtros&lt;/font&gt;&lt;font style=&quot;border-color: var(--border-color);&quot;&gt;()&lt;/font&gt;&lt;/font&gt;" style="text;html=1;align=center;verticalAlign=middle;whiteSpace=wrap;rounded=0;fontSize=10;" parent="1" vertex="1">
                    <mxGeometry x="156" y="1079" width="160" height="20" as="geometry"/>
                </mxCell>
                <mxCell id="-u--zJyqtq7YNAQtrUt4-5" value="" style="rounded=1;whiteSpace=wrap;html=1;" parent="1" vertex="1">
                    <mxGeometry x="815" y="1097" width="10" height="52" as="geometry"/>
                </mxCell>
                <mxCell id="-u--zJyqtq7YNAQtrUt4-6" value="" style="endArrow=classic;html=1;rounded=0;exitX=1;exitY=0;exitDx=0;exitDy=0;entryX=0;entryY=0;entryDx=0;entryDy=0;" parent="1" source="-u--zJyqtq7YNAQtrUt4-1" target="-u--zJyqtq7YNAQtrUt4-5" edge="1">
                    <mxGeometry width="50" height="50" relative="1" as="geometry">
                        <mxPoint x="624" y="1097.6599999999999" as="sourcePoint"/>
                        <mxPoint x="820" y="1099" as="targetPoint"/>
                    </mxGeometry>
                </mxCell>
                <mxCell id="-u--zJyqtq7YNAQtrUt4-7" value="" style="endArrow=none;html=1;rounded=0;entryX=0;entryY=1;entryDx=0;entryDy=0;dashed=1;endFill=0;startArrow=open;startFill=0;exitX=1;exitY=1;exitDx=0;exitDy=0;" parent="1" source="-u--zJyqtq7YNAQtrUt4-1" target="-u--zJyqtq7YNAQtrUt4-5" edge="1">
                    <mxGeometry width="50" height="50" relative="1" as="geometry">
                        <mxPoint x="623" y="1147" as="sourcePoint"/>
                        <mxPoint x="925" y="1147" as="targetPoint"/>
                    </mxGeometry>
                </mxCell>
                <mxCell id="-u--zJyqtq7YNAQtrUt4-8" value="{&lt;font&gt;&lt;/font&gt;Voos}" style="text;html=1;align=center;verticalAlign=middle;whiteSpace=wrap;rounded=0;fontSize=10;" parent="1" vertex="1">
                    <mxGeometry x="510" y="1147" width="130" height="20" as="geometry"/>
                </mxCell>
                <mxCell id="-u--zJyqtq7YNAQtrUt4-9" value="{Voos}" style="text;html=1;align=center;verticalAlign=middle;whiteSpace=wrap;rounded=0;fontSize=10;" parent="1" vertex="1">
                    <mxGeometry x="145" y="1149" width="180" height="20" as="geometry"/>
                </mxCell>
                <mxCell id="-u--zJyqtq7YNAQtrUt4-10" value="&lt;font&gt;6.1: get&lt;/font&gt;Voo&lt;font&gt;sFiltro()&lt;/font&gt;" style="text;html=1;align=center;verticalAlign=middle;whiteSpace=wrap;rounded=0;fontSize=10;" parent="1" vertex="1">
                    <mxGeometry x="498" y="1079" width="160" height="20" as="geometry"/>
                </mxCell>
                <mxCell id="-u--zJyqtq7YNAQtrUt4-12" value="" style="endArrow=none;dashed=1;html=1;rounded=0;exitX=0.5;exitY=1;exitDx=0;exitDy=0;" parent="1" edge="1">
                    <mxGeometry width="50" height="50" relative="1" as="geometry">
                        <mxPoint x="819.89" y="1149" as="sourcePoint"/>
                        <mxPoint x="819.89" y="1169" as="targetPoint"/>
                    </mxGeometry>
                </mxCell>
                <mxCell id="RL5L2QmKVNSbqxoODXSL-1" value="" style="endArrow=none;dashed=1;html=1;rounded=0;exitX=0.5;exitY=1;exitDx=0;exitDy=0;" parent="1" edge="1">
                    <mxGeometry width="50" height="50" relative="1" as="geometry">
                        <mxPoint x="329.6" y="1149" as="sourcePoint"/>
                        <mxPoint x="329.6" y="1169" as="targetPoint"/>
                    </mxGeometry>
                </mxCell>
                <mxCell id="wnEiM9dFscX0WscLnpGB-1" value="Aeronave" style="rounded=0;whiteSpace=wrap;html=1;" parent="1" vertex="1">
                    <mxGeometry x="920" y="215" width="120" height="50" as="geometry"/>
                </mxCell>
                <mxCell id="wnEiM9dFscX0WscLnpGB-2" value="PortaoEmbarque" style="rounded=0;whiteSpace=wrap;html=1;" parent="1" vertex="1">
                    <mxGeometry x="1080" y="215" width="120" height="50" as="geometry"/>
                </mxCell>
                <mxCell id="wnEiM9dFscX0WscLnpGB-3" value="" style="rounded=1;whiteSpace=wrap;html=1;" parent="1" vertex="1">
                    <mxGeometry x="975" y="558" width="10" height="22" as="geometry"/>
                </mxCell>
                <mxCell id="wnEiM9dFscX0WscLnpGB-4" value="" style="rounded=1;whiteSpace=wrap;html=1;" parent="1" vertex="1">
                    <mxGeometry x="1135" y="585" width="10" height="21" as="geometry"/>
                </mxCell>
                <mxCell id="wnEiM9dFscX0WscLnpGB-5" value="" style="endArrow=none;dashed=1;html=1;rounded=0;entryX=0.5;entryY=0;entryDx=0;entryDy=0;" parent="1" target="wnEiM9dFscX0WscLnpGB-3" edge="1">
                    <mxGeometry width="50" height="50" relative="1" as="geometry">
                        <mxPoint x="979.58" y="265" as="sourcePoint"/>
                        <mxPoint x="980" y="550" as="targetPoint"/>
                    </mxGeometry>
                </mxCell>
                <mxCell id="wnEiM9dFscX0WscLnpGB-7" value="" style="endArrow=none;dashed=1;html=1;rounded=0;entryX=0.5;entryY=0;entryDx=0;entryDy=0;" parent="1" target="wnEiM9dFscX0WscLnpGB-4" edge="1">
                    <mxGeometry width="50" height="50" relative="1" as="geometry">
                        <mxPoint x="1139.5" y="265" as="sourcePoint"/>
                        <mxPoint x="1139.92" y="558" as="targetPoint"/>
                    </mxGeometry>
                </mxCell>
                <mxCell id="wnEiM9dFscX0WscLnpGB-8" value="" style="endArrow=classic;html=1;rounded=0;entryX=0;entryY=0;entryDx=0;entryDy=0;exitX=1;exitY=0;exitDx=0;exitDy=0;" parent="1" source="axeA_orivt2Zv7nJtLyO-32" edge="1">
                    <mxGeometry width="50" height="50" relative="1" as="geometry">
                        <mxPoint x="850" y="570" as="sourcePoint"/>
                        <mxPoint x="975" y="558" as="targetPoint"/>
                    </mxGeometry>
                </mxCell>
                <mxCell id="wnEiM9dFscX0WscLnpGB-9" value="" style="endArrow=none;html=1;rounded=0;entryX=0;entryY=1;entryDx=0;entryDy=0;dashed=1;endFill=0;startArrow=open;startFill=0;exitX=1.133;exitY=0.433;exitDx=0;exitDy=0;exitPerimeter=0;" parent="1" source="axeA_orivt2Zv7nJtLyO-32" edge="1">
                    <mxGeometry width="50" height="50" relative="1" as="geometry">
                        <mxPoint x="658" y="580" as="sourcePoint"/>
                        <mxPoint x="977" y="580" as="targetPoint"/>
                    </mxGeometry>
                </mxCell>
                <mxCell id="wnEiM9dFscX0WscLnpGB-10" value="" style="endArrow=classic;html=1;rounded=0;exitX=0.965;exitY=0.573;exitDx=0;exitDy=0;exitPerimeter=0;entryX=0;entryY=0;entryDx=0;entryDy=0;" parent="1" source="axeA_orivt2Zv7nJtLyO-32" target="wnEiM9dFscX0WscLnpGB-4" edge="1">
                    <mxGeometry width="50" height="50" relative="1" as="geometry">
                        <mxPoint x="825" y="605.83" as="sourcePoint"/>
                        <mxPoint x="1145" y="604.83" as="targetPoint"/>
                    </mxGeometry>
                </mxCell>
                <mxCell id="wnEiM9dFscX0WscLnpGB-11" value="" style="endArrow=none;html=1;rounded=0;entryX=0;entryY=1;entryDx=0;entryDy=0;dashed=1;endFill=0;startArrow=open;startFill=0;" parent="1" target="wnEiM9dFscX0WscLnpGB-4" edge="1">
                    <mxGeometry width="50" height="50" relative="1" as="geometry">
                        <mxPoint x="825" y="607" as="sourcePoint"/>
                        <mxPoint x="1144" y="607" as="targetPoint"/>
                    </mxGeometry>
                </mxCell>
                <mxCell id="wnEiM9dFscX0WscLnpGB-12" value="" style="endArrow=none;dashed=1;html=1;rounded=0;exitX=0.5;exitY=1;exitDx=0;exitDy=0;" parent="1" edge="1">
                    <mxGeometry width="50" height="50" relative="1" as="geometry">
                        <mxPoint x="1139.9199999999998" y="970" as="sourcePoint"/>
                        <mxPoint x="1139.9199999999998" y="990" as="targetPoint"/>
                    </mxGeometry>
                </mxCell>
                <mxCell id="wnEiM9dFscX0WscLnpGB-14" value="2.3: verificarDisponibilidade()" style="text;html=1;align=center;verticalAlign=middle;whiteSpace=wrap;rounded=0;fontSize=10;" parent="1" vertex="1">
                    <mxGeometry x="820" y="538" width="150" height="20" as="geometry"/>
                </mxCell>
                <mxCell id="wnEiM9dFscX0WscLnpGB-15" value="2.4: emUso()" style="text;html=1;align=center;verticalAlign=middle;whiteSpace=wrap;rounded=0;fontSize=10;" parent="1" vertex="1">
                    <mxGeometry x="960" y="566" width="200" height="20" as="geometry"/>
                </mxCell>
                <mxCell id="wnEiM9dFscX0WscLnpGB-16" value="{Disponivel}" style="text;html=1;align=center;verticalAlign=middle;whiteSpace=wrap;rounded=0;fontSize=10;" parent="1" vertex="1">
                    <mxGeometry x="860" y="561" width="70" height="20" as="geometry"/>
                </mxCell>
                <mxCell id="wnEiM9dFscX0WscLnpGB-17" value="{NÃ£o em uso}" style="text;html=1;align=center;verticalAlign=middle;whiteSpace=wrap;rounded=0;fontSize=10;" parent="1" vertex="1">
                    <mxGeometry x="982.5" y="606" width="155" height="20" as="geometry"/>
                </mxCell>
                <mxCell id="TOEgxDdM9Mp2f2DZRoNF-11" value="" style="rounded=1;whiteSpace=wrap;html=1;" parent="1" vertex="1">
                    <mxGeometry x="975" y="922" width="10" height="22" as="geometry"/>
                </mxCell>
                <mxCell id="TOEgxDdM9Mp2f2DZRoNF-12" value="" style="rounded=1;whiteSpace=wrap;html=1;" parent="1" vertex="1">
                    <mxGeometry x="1135" y="949" width="10" height="21" as="geometry"/>
                </mxCell>
                <mxCell id="TOEgxDdM9Mp2f2DZRoNF-13" value="" style="endArrow=classic;html=1;rounded=0;entryX=0;entryY=0;entryDx=0;entryDy=0;exitX=1;exitY=0;exitDx=0;exitDy=0;" parent="1" edge="1">
                    <mxGeometry width="50" height="50" relative="1" as="geometry">
                        <mxPoint x="825" y="922" as="sourcePoint"/>
                        <mxPoint x="975" y="922" as="targetPoint"/>
                    </mxGeometry>
                </mxCell>
                <mxCell id="TOEgxDdM9Mp2f2DZRoNF-14" value="" style="endArrow=none;html=1;rounded=0;entryX=0;entryY=1;entryDx=0;entryDy=0;dashed=1;endFill=0;startArrow=open;startFill=0;exitX=1.133;exitY=0.433;exitDx=0;exitDy=0;exitPerimeter=0;" parent="1" edge="1">
                    <mxGeometry width="50" height="50" relative="1" as="geometry">
                        <mxPoint x="826" y="944" as="sourcePoint"/>
                        <mxPoint x="977" y="944" as="targetPoint"/>
                    </mxGeometry>
                </mxCell>
                <mxCell id="TOEgxDdM9Mp2f2DZRoNF-15" value="" style="endArrow=classic;html=1;rounded=0;exitX=0.965;exitY=0.573;exitDx=0;exitDy=0;exitPerimeter=0;entryX=0;entryY=0;entryDx=0;entryDy=0;" parent="1" target="TOEgxDdM9Mp2f2DZRoNF-12" edge="1">
                    <mxGeometry width="50" height="50" relative="1" as="geometry">
                        <mxPoint x="825" y="951" as="sourcePoint"/>
                        <mxPoint x="1145" y="968.83" as="targetPoint"/>
                    </mxGeometry>
                </mxCell>
                <mxCell id="TOEgxDdM9Mp2f2DZRoNF-16" value="" style="endArrow=none;html=1;rounded=0;entryX=0;entryY=1;entryDx=0;entryDy=0;dashed=1;endFill=0;startArrow=open;startFill=0;" parent="1" target="TOEgxDdM9Mp2f2DZRoNF-12" edge="1">
                    <mxGeometry width="50" height="50" relative="1" as="geometry">
                        <mxPoint x="825" y="971" as="sourcePoint"/>
                        <mxPoint x="1144" y="971" as="targetPoint"/>
                    </mxGeometry>
                </mxCell>
                <mxCell id="TOEgxDdM9Mp2f2DZRoNF-17" value="2.3: verificarDisponibilidade()" style="text;html=1;align=center;verticalAlign=middle;whiteSpace=wrap;rounded=0;fontSize=10;" parent="1" vertex="1">
                    <mxGeometry x="820" y="902" width="150" height="20" as="geometry"/>
                </mxCell>
                <mxCell id="TOEgxDdM9Mp2f2DZRoNF-18" value="2.4: emUso()" style="text;html=1;align=center;verticalAlign=middle;whiteSpace=wrap;rounded=0;fontSize=10;" parent="1" vertex="1">
                    <mxGeometry x="960" y="930" width="200" height="20" as="geometry"/>
                </mxCell>
                <mxCell id="TOEgxDdM9Mp2f2DZRoNF-19" value="{Disponivel}" style="text;html=1;align=center;verticalAlign=middle;whiteSpace=wrap;rounded=0;fontSize=10;" parent="1" vertex="1">
                    <mxGeometry x="860" y="925" width="70" height="20" as="geometry"/>
                </mxCell>
                <mxCell id="TOEgxDdM9Mp2f2DZRoNF-20" value="{NÃ£o em uso}" style="text;html=1;align=center;verticalAlign=middle;whiteSpace=wrap;rounded=0;fontSize=10;" parent="1" vertex="1">
                    <mxGeometry x="982.5" y="970" width="155" height="20" as="geometry"/>
                </mxCell>
                <mxCell id="TOEgxDdM9Mp2f2DZRoNF-21" value="" style="endArrow=none;dashed=1;html=1;rounded=0;exitX=0.5;exitY=1;exitDx=0;exitDy=0;" parent="1" source="wnEiM9dFscX0WscLnpGB-4" edge="1">
                    <mxGeometry width="50" height="50" relative="1" as="geometry">
                        <mxPoint x="1140" y="689.84375" as="sourcePoint"/>
                        <mxPoint x="1139.9199999999998" y="949" as="targetPoint"/>
                    </mxGeometry>
                </mxCell>
            </root>
        </mxGraphModel>
    </diagram>
</mxfile>